<?xml version="1.0" encoding="utf-8"?>
<!-- Generator: Adobe Illustrator 24.1.3, SVG Export Plug-In . SVG Version: 6.00 Build 0)  -->
<svg version="1.1" id="Layer_1" xmlns="http://www.w3.org/2000/svg" xmlns:xlink="http://www.w3.org/1999/xlink" x="0px" y="0px"
	 viewBox="0 0 16.4 18" style="enable-background:new 0 0 16.4 18;" xml:space="preserve">
<style type="text/css">
	.st0{fill:#34425A;}
</style>
<g>
	<path class="st0" d="M16.1,16.2l-1.4-1.5c-0.2-0.2-0.5-0.3-0.8-0.3s-0.5,0.1-0.7,0.3c-0.4,0.4-0.5,1-0.1,1.4c0,0,0,0,0.1,0.1
		l1.4,1.5c0.2,0.2,0.5,0.3,0.8,0.3s0.5-0.1,0.7-0.3C16.5,17.4,16.5,16.7,16.1,16.2C16.1,16.3,16.1,16.3,16.1,16.2z"/>
	<path class="st0" d="M7.3,0C3.3,0,0,3.3,0,7.3s3.3,7.3,7.3,7.3s7.3-3.3,7.3-7.3S11.4,0,7.3,0L7.3,0z M7.3,13.1
		c-3.2,0-5.8-2.6-5.8-5.7s2.6-5.7,5.8-5.7s5.8,2.6,5.8,5.7l0,0C13,10.5,10.5,13.1,7.3,13.1z"/>
</g>
</svg>
