<?xml version="1.0" encoding="utf-8"?>
<!-- Generator: Adobe Illustrator 24.1.3, SVG Export Plug-In . SVG Version: 6.00 Build 0)  -->
<svg version="1.1" id="Layer_1" xmlns="http://www.w3.org/2000/svg" xmlns:xlink="http://www.w3.org/1999/xlink" x="0px" y="0px"
	 viewBox="0 0 16.4 18" style="enable-background:new 0 0 16.4 18;" xml:space="preserve">
<style type="text/css">
	.st0{fill:#34425A;}
</style>
<g>
	<path class="st0" d="M8.1,1.4c2.2,0,4,1.8,4,4s-1.8,4-4,4s-4-1.8-4-4S5.9,1.4,8.1,1.4 M8.1,0c-3,0-5.4,2.4-5.4,5.3s2.4,5.4,5.3,5.4
		c3,0,5.4-2.4,5.4-5.3c0,0,0,0,0,0C13.5,2.4,11.1,0,8.1,0z"/>
	<path class="st0" d="M14.8,16.9c0,0.4,0,0.7-0.1,1.1h1.4c0.1-0.4,0.1-0.7,0.1-1.1c0-2.8-1.4-5.4-3.8-6.8c-0.4,0.3-0.8,0.6-1.2,0.9
		C13.5,12.1,14.8,14.4,14.8,16.9z"/>
	<path class="st0" d="M1.5,18C1,15.2,2.4,12.3,5,11c-0.4-0.3-0.9-0.6-1.2-0.9c-2.3,1.5-3.8,4-3.8,6.8c0,0.4,0,0.7,0.1,1.1H1.5z"/>
</g>
</svg>
